<svg width="39" height="47" viewBox="0 0 39 47" fill="none" xmlns="http://www.w3.org/2000/svg">
<path d="M38.9253 34.1338V11.7442H38.9168C38.9189 11.6397 38.9253 11.5351 38.9253 11.4285C38.9253 5.45718 34.0847 0.616578 28.1135 0.616578H9.73027C4.35633 0.614445 0 4.97077 0 10.3468V22.2403H29.1929V24.4036H0V34.1338H38.9253ZM28.1135 12.5079H10.8119C10.2145 12.5079 9.73027 12.0237 9.73027 11.4263C9.73027 10.829 10.2145 10.3447 10.8119 10.3447H28.1113C28.7087 10.3447 29.1929 10.829 29.1929 11.4263C29.1929 12.0237 28.7087 12.5079 28.1113 12.5079H28.1135Z" fill="white"/>
<path d="M39 36.2971H0V46.0274H39V36.2971Z" fill="white"/>
</svg>
