<svg width="101" height="40" viewBox="0 0 101 45" fill="none" xmlns="http://www.w3.org/2000/svg">
<path d="M77.2709 32.8394V11.0757H77.2631C77.2657 10.9728 77.2709 10.8724 77.2709 10.7695C77.2709 4.96445 72.557 0.260742 66.7452 0.260742H48.851C43.6191 0.260742 39.3768 4.49614 39.3768 9.71963V21.2808H67.7967V23.383H39.3768V32.8419H77.2709V32.8394ZM66.7452 11.8219H49.9025C49.3201 11.8219 48.851 11.351 48.851 10.772C48.851 10.1931 49.3226 9.7222 49.9025 9.7222H66.7452C67.3276 9.7222 67.7967 10.1931 67.7967 10.772C67.7967 11.351 67.3251 11.8219 66.7452 11.8219ZM89.9022 0.260742C84.0878 0.260742 79.3765 4.96703 79.3765 10.7695V34.9416H39.3768V44.4005H89.9022C95.7166 44.4005 100.428 39.6942 100.428 33.8918V10.772C100.428 4.96703 95.714 0.263315 89.9022 0.263315V0.260742ZM90.9537 33.8892C90.9537 34.4707 90.4821 34.939 89.9022 34.939C89.3223 34.939 88.8507 34.4682 88.8507 33.8892V10.7695C88.8507 10.1879 89.3223 9.71963 89.9022 9.71963C90.4821 9.71963 90.9537 10.1905 90.9537 10.7695V33.8892ZM27.797 34.939H25.6398C25.6733 34.5942 25.6914 34.2417 25.6914 33.8892V10.7695C25.6914 4.96445 20.9775 0.260742 15.1657 0.260742C9.3539 0.260742 4.64002 4.96445 4.64002 10.7695V34.9416H0.428711V44.4005H37.2712V0.260742H27.797V34.9416V34.939ZM16.2172 33.8892C16.2172 34.4707 15.7456 34.939 15.1657 34.939C14.5858 34.939 14.1142 34.4682 14.1142 33.8892V10.7695C14.1142 10.1879 14.5858 9.71963 15.1657 9.71963C15.7456 9.71963 16.2172 10.1905 16.2172 10.7695V33.8892Z" fill="white"/>
</svg>
